<svg version="1.1" id="Layer_1" xmlns="http://www.w3.org/2000/svg" xmlns:xlink="http://www.w3.org/1999/xlink" x="0px" y="0px"
	 width="100%" viewBox="0 0 512 512" enable-background="new 0 0 512 512" xml:space="preserve">
<path fill="#000000" opacity="1.000000" stroke="none" 
	d="
M336.504578,219.358185 
	C332.267426,222.057053 332.191864,222.617813 335.478607,227.453659 
	C331.342987,230.249985 334.240723,235.021378 332.529633,238.548691 
	C330.866943,239.462082 329.630920,237.773376 328.029327,238.049973 
	C326.756287,239.148804 327.701111,241.820633 324.539825,242.384094 
	C322.290192,237.169235 317.500366,234.432236 311.807770,232.290146 
	C311.673706,235.339722 308.211884,235.889923 307.373779,238.726120 
	C305.959778,243.511169 306.087311,248.209702 307.041321,252.996918 
	C307.672241,256.162506 306.924591,258.087830 302.985260,256.763397 
	C301.831665,260.661896 301.143036,264.643951 297.894287,267.325256 
	C295.000854,265.818848 295.934479,263.192291 295.473907,260.779175 
	C289.305420,261.426727 292.717316,256.026520 291.159760,253.616745 
	C289.653931,253.400986 289.279724,255.655579 286.944855,254.774002 
	C287.429779,250.116653 287.943634,245.181778 288.606293,238.817474 
	C281.547974,241.844604 279.237091,249.571060 272.167053,252.014008 
	C271.152557,246.262604 275.670410,242.073532 275.333984,236.909729 
	C269.978699,234.596542 266.901398,238.818710 264.121857,241.442993 
	C252.249786,252.651871 240.784821,264.294678 229.255325,275.862885 
	C215.622726,289.541260 202.125534,303.354706 188.479935,317.019989 
	C173.218323,332.303619 157.817413,347.448120 142.550049,362.726074 
	C130.418655,374.865906 118.494209,387.214142 106.268394,399.257172 
	C102.534531,402.935211 99.315109,407.218536 94.947388,410.156891 
	C89.699173,406.435791 89.425171,405.562347 93.502396,401.391724 
	C102.505394,392.182556 111.715233,383.175934 120.807503,374.053619 
	C131.423477,363.402618 141.974365,352.686646 152.608948,342.054352 
	C162.071198,332.594147 171.637787,323.238312 181.106018,313.784088 
	C191.515503,303.389954 201.844696,292.915466 212.246231,282.513306 
	C225.215973,269.542816 238.309769,256.694824 251.163223,243.610458 
	C255.045013,239.658951 259.496796,236.101212 262.393250,230.898361 
	C258.388916,227.914124 255.336319,223.701630 249.584412,226.110748 
	C248.546341,226.545547 246.729034,225.867966 246.755402,224.716293 
	C246.831543,221.391983 247.104324,218.183304 246.455460,214.785248 
	C246.116882,213.012177 249.335968,211.938995 251.238586,210.923965 
	C251.660400,210.698914 252.083023,210.475418 253.547806,209.697662 
	C249.088074,209.893478 245.093124,210.486084 245.271027,205.130524 
	C241.505020,204.628372 240.429825,200.074219 236.606003,199.474304 
	C234.756821,199.184189 232.596451,198.710159 231.970825,196.233719 
	C233.227188,193.638748 235.548019,193.610443 237.917648,193.799484 
	C239.896088,193.957291 241.870255,194.186630 243.839493,194.437668 
	C246.062881,194.721115 248.331223,195.045670 249.146179,192.194824 
	C249.892822,189.582977 247.890930,187.976990 246.259766,186.913040 
	C243.212646,184.925552 239.760086,183.565628 236.506302,181.886292 
	C235.009964,181.113983 233.298645,180.195557 234.079041,178.135345 
	C234.859482,176.075027 236.887085,176.609634 238.423904,176.892410 
	C241.362137,177.433044 244.313934,178.074692 247.131042,179.047989 
	C249.760864,179.956589 252.223282,181.349731 254.930313,182.609131 
	C256.901001,179.714661 257.956604,177.502350 256.789062,173.782166 
	C255.680527,170.250092 256.400208,165.955948 257.053894,162.122742 
	C257.519531,159.392227 265.200378,159.698669 266.762695,162.845215 
	C269.135986,167.625092 271.976624,165.726624 273.349670,163.083054 
	C275.720703,158.518082 281.432281,158.609161 283.876678,154.346802 
	C284.676758,152.951645 286.545013,153.364609 287.380798,155.223251 
	C288.036224,156.680740 289.017456,157.848694 290.822449,157.426895 
	C292.633789,157.003601 292.674286,155.262375 293.137817,153.879608 
	C293.348907,153.249939 293.498108,152.597916 293.648132,151.949722 
	C293.954041,150.628067 294.244171,149.154373 295.930420,149.127243 
	C297.763489,149.097733 297.778046,150.740631 298.036865,152.004089 
	C298.737030,155.421936 300.139679,158.238831 303.623138,159.693314 
	C307.236664,161.202057 310.342926,161.367752 312.766174,157.596573 
	C314.076721,155.557068 315.825836,154.041687 318.609680,155.039490 
	C321.311066,156.007751 320.397034,158.092834 320.344025,160.031265 
	C320.194092,165.510544 323.126038,167.584015 328.249573,165.765442 
	C332.796600,164.151535 337.350342,162.556168 341.910919,160.980911 
	C343.454956,160.447601 345.009186,159.589996 346.849518,160.865128 
	C347.480347,163.881744 344.832825,164.443802 343.041321,165.675888 
	C339.306702,168.244293 333.394531,168.111206 332.580109,174.383575 
	C332.419830,175.617767 331.033020,173.482407 329.830933,174.599762 
	C334.173615,179.368195 341.273712,172.899918 345.278351,178.632339 
	C343.759247,181.336578 340.978668,182.831863 338.405182,184.549210 
	C337.359436,185.247055 335.686707,185.461884 336.108887,187.308975 
	C336.437195,188.745178 337.395325,189.684891 338.900604,189.756470 
	C344.470947,190.021286 346.786285,196.388947 352.698669,195.671890 
	C351.508484,198.776749 349.761902,196.630859 348.829987,197.813705 
	C348.857483,197.925156 348.914795,198.395477 348.982391,198.396957 
	C352.320435,198.470123 354.262451,201.834305 357.602325,202.008530 
	C358.699341,202.065750 359.271851,203.225266 358.922272,204.294128 
	C358.454681,205.723694 357.153931,206.212158 355.754456,206.316864 
	C351.136444,206.662399 346.518127,207.012024 341.895416,207.282974 
	C340.219208,207.381226 338.542358,207.318008 337.203217,208.564606 
	C335.591705,210.064697 334.221680,211.672363 336.980408,213.283569 
	C340.795105,215.511551 339.335754,217.298920 336.504578,219.358185 
M301.683075,213.960358 
	C303.963165,211.785873 306.333862,209.697662 308.504547,207.418930 
	C313.003082,202.696426 312.528992,196.251389 307.531830,191.995621 
	C306.395844,191.028168 305.396545,189.901169 304.322174,188.860153 
	C299.966858,184.640045 293.348755,184.669830 289.340759,189.264923 
	C283.685425,195.748718 280.825043,202.737579 287.453918,210.919144 
	C289.924530,209.415070 291.507660,210.577515 293.378784,213.232574 
	C295.069122,215.631088 298.140808,217.546371 301.683075,213.960358 
z"/>
</svg>